<mxfile host="Electron" agent="Mozilla/5.0 (Windows NT 10.0; Win64; x64) AppleWebKit/537.36 (KHTML, like Gecko) draw.io/25.0.1 Chrome/128.0.6613.186 Electron/32.2.6 Safari/537.36" version="25.0.1">
  <diagram name="第 1 页" id="1sckSDOtUuJvLWyB_AYf">
    <mxGraphModel dx="2328" dy="722" grid="1" gridSize="10" guides="1" tooltips="1" connect="1" arrows="1" fold="1" page="1" pageScale="1" pageWidth="827" pageHeight="1169" math="0" shadow="0">
      <root>
        <mxCell id="0" />
        <mxCell id="1" parent="0" />
        <mxCell id="zozvZ9Csr4OsTHH7d_1L-1" value="" style="swimlane;whiteSpace=wrap;html=1;" vertex="1" parent="1">
          <mxGeometry x="30" y="210" width="540" height="310" as="geometry" />
        </mxCell>
        <mxCell id="zozvZ9Csr4OsTHH7d_1L-60" value="" style="rounded=0;whiteSpace=wrap;html=1;labelBackgroundColor=#E6E6E6;" vertex="1" parent="zozvZ9Csr4OsTHH7d_1L-1">
          <mxGeometry x="165" y="51.75" width="350" height="225" as="geometry" />
        </mxCell>
        <mxCell id="zozvZ9Csr4OsTHH7d_1L-40" style="edgeStyle=orthogonalEdgeStyle;curved=1;rounded=0;orthogonalLoop=1;jettySize=auto;html=1;exitX=1;exitY=0.5;exitDx=0;exitDy=0;entryX=0;entryY=0.5;entryDx=0;entryDy=0;" edge="1" parent="zozvZ9Csr4OsTHH7d_1L-1" source="zozvZ9Csr4OsTHH7d_1L-3" target="zozvZ9Csr4OsTHH7d_1L-4">
          <mxGeometry relative="1" as="geometry" />
        </mxCell>
        <mxCell id="zozvZ9Csr4OsTHH7d_1L-3" value="接口服务发现" style="rounded=0;whiteSpace=wrap;html=1;" vertex="1" parent="zozvZ9Csr4OsTHH7d_1L-1">
          <mxGeometry x="195" y="69.25" width="170" height="40" as="geometry" />
        </mxCell>
        <mxCell id="zozvZ9Csr4OsTHH7d_1L-4" value="cache" style="rounded=0;whiteSpace=wrap;html=1;" vertex="1" parent="zozvZ9Csr4OsTHH7d_1L-1">
          <mxGeometry x="405" y="69.25" width="80" height="40" as="geometry" />
        </mxCell>
        <mxCell id="zozvZ9Csr4OsTHH7d_1L-41" style="edgeStyle=orthogonalEdgeStyle;curved=1;rounded=0;orthogonalLoop=1;jettySize=auto;html=1;exitX=1;exitY=0.5;exitDx=0;exitDy=0;entryX=0;entryY=0.5;entryDx=0;entryDy=0;" edge="1" parent="zozvZ9Csr4OsTHH7d_1L-1" source="zozvZ9Csr4OsTHH7d_1L-5" target="zozvZ9Csr4OsTHH7d_1L-6">
          <mxGeometry relative="1" as="geometry" />
        </mxCell>
        <mxCell id="zozvZ9Csr4OsTHH7d_1L-5" value="序列化" style="rounded=0;whiteSpace=wrap;html=1;" vertex="1" parent="zozvZ9Csr4OsTHH7d_1L-1">
          <mxGeometry x="195" y="139.25" width="70" height="40" as="geometry" />
        </mxCell>
        <mxCell id="zozvZ9Csr4OsTHH7d_1L-6" value="协议编码" style="rounded=0;whiteSpace=wrap;html=1;" vertex="1" parent="zozvZ9Csr4OsTHH7d_1L-1">
          <mxGeometry x="295" y="139.25" width="70" height="40" as="geometry" />
        </mxCell>
        <mxCell id="zozvZ9Csr4OsTHH7d_1L-50" style="edgeStyle=orthogonalEdgeStyle;curved=1;rounded=0;orthogonalLoop=1;jettySize=auto;html=1;exitX=0;exitY=0.5;exitDx=0;exitDy=0;entryX=1;entryY=0.75;entryDx=0;entryDy=0;" edge="1" parent="zozvZ9Csr4OsTHH7d_1L-1" source="zozvZ9Csr4OsTHH7d_1L-7" target="zozvZ9Csr4OsTHH7d_1L-11">
          <mxGeometry relative="1" as="geometry" />
        </mxCell>
        <mxCell id="zozvZ9Csr4OsTHH7d_1L-7" value="反序列化" style="rounded=0;whiteSpace=wrap;html=1;" vertex="1" parent="zozvZ9Csr4OsTHH7d_1L-1">
          <mxGeometry x="195" y="219.25" width="70" height="40" as="geometry" />
        </mxCell>
        <mxCell id="zozvZ9Csr4OsTHH7d_1L-49" style="edgeStyle=orthogonalEdgeStyle;curved=1;rounded=0;orthogonalLoop=1;jettySize=auto;html=1;exitX=0;exitY=0.5;exitDx=0;exitDy=0;entryX=1;entryY=0.5;entryDx=0;entryDy=0;" edge="1" parent="zozvZ9Csr4OsTHH7d_1L-1" source="zozvZ9Csr4OsTHH7d_1L-8" target="zozvZ9Csr4OsTHH7d_1L-7">
          <mxGeometry relative="1" as="geometry" />
        </mxCell>
        <mxCell id="zozvZ9Csr4OsTHH7d_1L-8" value="协议解码" style="rounded=0;whiteSpace=wrap;html=1;" vertex="1" parent="zozvZ9Csr4OsTHH7d_1L-1">
          <mxGeometry x="295" y="219.25" width="70" height="40" as="geometry" />
        </mxCell>
        <mxCell id="zozvZ9Csr4OsTHH7d_1L-48" style="edgeStyle=orthogonalEdgeStyle;curved=1;rounded=0;orthogonalLoop=1;jettySize=auto;html=1;exitX=0;exitY=0.75;exitDx=0;exitDy=0;entryX=1;entryY=0.5;entryDx=0;entryDy=0;" edge="1" parent="zozvZ9Csr4OsTHH7d_1L-1" source="zozvZ9Csr4OsTHH7d_1L-9" target="zozvZ9Csr4OsTHH7d_1L-8">
          <mxGeometry relative="1" as="geometry" />
        </mxCell>
        <mxCell id="zozvZ9Csr4OsTHH7d_1L-9" value="网络模块" style="rounded=0;whiteSpace=wrap;html=1;" vertex="1" parent="zozvZ9Csr4OsTHH7d_1L-1">
          <mxGeometry x="405" y="139.25" width="80" height="120" as="geometry" />
        </mxCell>
        <mxCell id="zozvZ9Csr4OsTHH7d_1L-51" style="edgeStyle=orthogonalEdgeStyle;curved=1;rounded=0;orthogonalLoop=1;jettySize=auto;html=1;exitX=1;exitY=0.5;exitDx=0;exitDy=0;entryX=0;entryY=0.5;entryDx=0;entryDy=0;" edge="1" parent="zozvZ9Csr4OsTHH7d_1L-1" source="zozvZ9Csr4OsTHH7d_1L-11" target="zozvZ9Csr4OsTHH7d_1L-5">
          <mxGeometry relative="1" as="geometry" />
        </mxCell>
        <mxCell id="zozvZ9Csr4OsTHH7d_1L-11" value="调用模块" style="swimlane;whiteSpace=wrap;html=1;" vertex="1" parent="zozvZ9Csr4OsTHH7d_1L-1">
          <mxGeometry x="25" y="69.25" width="120" height="190" as="geometry" />
        </mxCell>
        <mxCell id="zozvZ9Csr4OsTHH7d_1L-12" value="集群容错" style="rounded=0;whiteSpace=wrap;html=1;" vertex="1" parent="zozvZ9Csr4OsTHH7d_1L-11">
          <mxGeometry x="25" y="30" width="70" height="30" as="geometry" />
        </mxCell>
        <mxCell id="zozvZ9Csr4OsTHH7d_1L-13" value="治理" style="rounded=0;whiteSpace=wrap;html=1;" vertex="1" parent="zozvZ9Csr4OsTHH7d_1L-11">
          <mxGeometry x="25" y="70" width="70" height="30" as="geometry" />
        </mxCell>
        <mxCell id="zozvZ9Csr4OsTHH7d_1L-14" value="负载均衡" style="rounded=0;whiteSpace=wrap;html=1;" vertex="1" parent="zozvZ9Csr4OsTHH7d_1L-11">
          <mxGeometry x="25" y="110" width="70" height="30" as="geometry" />
        </mxCell>
        <mxCell id="zozvZ9Csr4OsTHH7d_1L-15" value="流控" style="rounded=0;whiteSpace=wrap;html=1;" vertex="1" parent="zozvZ9Csr4OsTHH7d_1L-11">
          <mxGeometry x="25" y="150" width="70" height="30" as="geometry" />
        </mxCell>
        <mxCell id="zozvZ9Csr4OsTHH7d_1L-42" style="edgeStyle=orthogonalEdgeStyle;curved=1;rounded=0;orthogonalLoop=1;jettySize=auto;html=1;exitX=1;exitY=0.5;exitDx=0;exitDy=0;entryX=0.025;entryY=0.163;entryDx=0;entryDy=0;entryPerimeter=0;" edge="1" parent="zozvZ9Csr4OsTHH7d_1L-1" source="zozvZ9Csr4OsTHH7d_1L-6" target="zozvZ9Csr4OsTHH7d_1L-9">
          <mxGeometry relative="1" as="geometry" />
        </mxCell>
        <mxCell id="zozvZ9Csr4OsTHH7d_1L-2" value="" style="swimlane;whiteSpace=wrap;html=1;" vertex="1" parent="1">
          <mxGeometry x="760" y="210" width="500" height="310" as="geometry" />
        </mxCell>
        <mxCell id="zozvZ9Csr4OsTHH7d_1L-64" value="" style="rounded=0;whiteSpace=wrap;html=1;" vertex="1" parent="zozvZ9Csr4OsTHH7d_1L-2">
          <mxGeometry x="20" y="50" width="450" height="230" as="geometry" />
        </mxCell>
        <mxCell id="zozvZ9Csr4OsTHH7d_1L-25" value="接口服务注册" style="rounded=0;whiteSpace=wrap;html=1;" vertex="1" parent="zozvZ9Csr4OsTHH7d_1L-2">
          <mxGeometry x="170" y="70" width="170" height="40" as="geometry" />
        </mxCell>
        <mxCell id="zozvZ9Csr4OsTHH7d_1L-68" style="edgeStyle=orthogonalEdgeStyle;curved=1;rounded=0;orthogonalLoop=1;jettySize=auto;html=1;exitX=1;exitY=0.5;exitDx=0;exitDy=0;entryX=0;entryY=0.5;entryDx=0;entryDy=0;" edge="1" parent="zozvZ9Csr4OsTHH7d_1L-2" source="zozvZ9Csr4OsTHH7d_1L-27" target="zozvZ9Csr4OsTHH7d_1L-28">
          <mxGeometry relative="1" as="geometry" />
        </mxCell>
        <mxCell id="zozvZ9Csr4OsTHH7d_1L-27" value="反序列化" style="rounded=0;whiteSpace=wrap;html=1;" vertex="1" parent="zozvZ9Csr4OsTHH7d_1L-2">
          <mxGeometry x="170" y="140" width="70" height="40" as="geometry" />
        </mxCell>
        <mxCell id="zozvZ9Csr4OsTHH7d_1L-70" style="edgeStyle=orthogonalEdgeStyle;curved=1;rounded=0;orthogonalLoop=1;jettySize=auto;html=1;exitX=1;exitY=0.5;exitDx=0;exitDy=0;entryX=0;entryY=0.5;entryDx=0;entryDy=0;" edge="1" parent="zozvZ9Csr4OsTHH7d_1L-2" source="zozvZ9Csr4OsTHH7d_1L-28" target="zozvZ9Csr4OsTHH7d_1L-69">
          <mxGeometry relative="1" as="geometry" />
        </mxCell>
        <mxCell id="zozvZ9Csr4OsTHH7d_1L-28" value="协议解码" style="rounded=0;whiteSpace=wrap;html=1;" vertex="1" parent="zozvZ9Csr4OsTHH7d_1L-2">
          <mxGeometry x="270" y="140" width="70" height="40" as="geometry" />
        </mxCell>
        <mxCell id="zozvZ9Csr4OsTHH7d_1L-74" style="edgeStyle=orthogonalEdgeStyle;curved=1;rounded=0;orthogonalLoop=1;jettySize=auto;html=1;exitX=0;exitY=0.5;exitDx=0;exitDy=0;entryX=1;entryY=0.75;entryDx=0;entryDy=0;" edge="1" parent="zozvZ9Csr4OsTHH7d_1L-2" source="zozvZ9Csr4OsTHH7d_1L-29" target="zozvZ9Csr4OsTHH7d_1L-31">
          <mxGeometry relative="1" as="geometry" />
        </mxCell>
        <mxCell id="zozvZ9Csr4OsTHH7d_1L-29" value="序列化" style="rounded=0;whiteSpace=wrap;html=1;" vertex="1" parent="zozvZ9Csr4OsTHH7d_1L-2">
          <mxGeometry x="170" y="210" width="70" height="40" as="geometry" />
        </mxCell>
        <mxCell id="zozvZ9Csr4OsTHH7d_1L-73" style="edgeStyle=orthogonalEdgeStyle;curved=1;rounded=0;orthogonalLoop=1;jettySize=auto;html=1;entryX=1;entryY=0.5;entryDx=0;entryDy=0;" edge="1" parent="zozvZ9Csr4OsTHH7d_1L-2" source="zozvZ9Csr4OsTHH7d_1L-30" target="zozvZ9Csr4OsTHH7d_1L-29">
          <mxGeometry relative="1" as="geometry" />
        </mxCell>
        <mxCell id="zozvZ9Csr4OsTHH7d_1L-30" value="协议编码" style="rounded=0;whiteSpace=wrap;html=1;" vertex="1" parent="zozvZ9Csr4OsTHH7d_1L-2">
          <mxGeometry x="270" y="210" width="70" height="40" as="geometry" />
        </mxCell>
        <mxCell id="zozvZ9Csr4OsTHH7d_1L-66" style="edgeStyle=orthogonalEdgeStyle;curved=1;rounded=0;orthogonalLoop=1;jettySize=auto;html=1;exitX=1;exitY=0.25;exitDx=0;exitDy=0;entryX=0;entryY=0.5;entryDx=0;entryDy=0;" edge="1" parent="zozvZ9Csr4OsTHH7d_1L-2" source="zozvZ9Csr4OsTHH7d_1L-31" target="zozvZ9Csr4OsTHH7d_1L-27">
          <mxGeometry relative="1" as="geometry" />
        </mxCell>
        <mxCell id="zozvZ9Csr4OsTHH7d_1L-31" value="网络模块" style="rounded=0;whiteSpace=wrap;html=1;" vertex="1" parent="zozvZ9Csr4OsTHH7d_1L-2">
          <mxGeometry x="50" y="140" width="80" height="110" as="geometry" />
        </mxCell>
        <mxCell id="zozvZ9Csr4OsTHH7d_1L-72" style="edgeStyle=orthogonalEdgeStyle;curved=1;rounded=0;orthogonalLoop=1;jettySize=auto;html=1;exitX=0;exitY=0.75;exitDx=0;exitDy=0;entryX=1;entryY=0.5;entryDx=0;entryDy=0;" edge="1" parent="zozvZ9Csr4OsTHH7d_1L-2" source="zozvZ9Csr4OsTHH7d_1L-69" target="zozvZ9Csr4OsTHH7d_1L-30">
          <mxGeometry relative="1" as="geometry" />
        </mxCell>
        <mxCell id="zozvZ9Csr4OsTHH7d_1L-69" value="服务模块" style="rounded=0;whiteSpace=wrap;html=1;" vertex="1" parent="zozvZ9Csr4OsTHH7d_1L-2">
          <mxGeometry x="370" y="140" width="80" height="110" as="geometry" />
        </mxCell>
        <mxCell id="zozvZ9Csr4OsTHH7d_1L-75" style="edgeStyle=orthogonalEdgeStyle;curved=1;rounded=0;orthogonalLoop=1;jettySize=auto;html=1;exitX=1;exitY=0.25;exitDx=0;exitDy=0;entryX=0;entryY=0.25;entryDx=0;entryDy=0;" edge="1" parent="1" source="zozvZ9Csr4OsTHH7d_1L-16" target="zozvZ9Csr4OsTHH7d_1L-31">
          <mxGeometry relative="1" as="geometry" />
        </mxCell>
        <mxCell id="zozvZ9Csr4OsTHH7d_1L-16" value="网络传输&lt;br&gt;00101010101" style="rounded=1;whiteSpace=wrap;html=1;" vertex="1" parent="1">
          <mxGeometry x="600" y="370" width="120" height="60" as="geometry" />
        </mxCell>
        <mxCell id="zozvZ9Csr4OsTHH7d_1L-22" style="edgeStyle=orthogonalEdgeStyle;curved=1;rounded=0;orthogonalLoop=1;jettySize=auto;html=1;exitX=0;exitY=0.5;exitDx=0;exitDy=0;entryX=0.75;entryY=0;entryDx=0;entryDy=0;" edge="1" parent="1" source="zozvZ9Csr4OsTHH7d_1L-17" target="zozvZ9Csr4OsTHH7d_1L-3">
          <mxGeometry relative="1" as="geometry" />
        </mxCell>
        <mxCell id="zozvZ9Csr4OsTHH7d_1L-24" value="变更通知" style="edgeLabel;html=1;align=center;verticalAlign=middle;resizable=0;points=[];" vertex="1" connectable="0" parent="zozvZ9Csr4OsTHH7d_1L-22">
          <mxGeometry x="0.3096" y="9" relative="1" as="geometry">
            <mxPoint x="44" y="18" as="offset" />
          </mxGeometry>
        </mxCell>
        <mxCell id="zozvZ9Csr4OsTHH7d_1L-17" value="注册中心&lt;br&gt;【ip,port, 方法列表……】映射&lt;br&gt;zookeeper，eureka，nacos，consul……" style="rounded=0;whiteSpace=wrap;html=1;" vertex="1" parent="1">
          <mxGeometry x="500" y="110" width="320" height="60" as="geometry" />
        </mxCell>
        <mxCell id="zozvZ9Csr4OsTHH7d_1L-20" style="edgeStyle=orthogonalEdgeStyle;curved=1;rounded=0;orthogonalLoop=1;jettySize=auto;html=1;exitX=0.5;exitY=0;exitDx=0;exitDy=0;entryX=0;entryY=0.5;entryDx=0;entryDy=0;" edge="1" parent="1" source="zozvZ9Csr4OsTHH7d_1L-3" target="zozvZ9Csr4OsTHH7d_1L-17">
          <mxGeometry relative="1" as="geometry" />
        </mxCell>
        <mxCell id="zozvZ9Csr4OsTHH7d_1L-23" value="订阅" style="edgeLabel;html=1;align=center;verticalAlign=middle;resizable=0;points=[];" vertex="1" connectable="0" parent="zozvZ9Csr4OsTHH7d_1L-20">
          <mxGeometry x="-0.2622" y="-25" relative="1" as="geometry">
            <mxPoint y="29" as="offset" />
          </mxGeometry>
        </mxCell>
        <mxCell id="zozvZ9Csr4OsTHH7d_1L-33" value="&lt;div style=&quot;&quot;&gt;&lt;span style=&quot;background-color: initial;&quot;&gt;&lt;font style=&quot;font-size: 14px;&quot;&gt;Request(构造请求，封装参数)&lt;/font&gt;&lt;/span&gt;&lt;/div&gt;&lt;div style=&quot;&quot;&gt;&lt;span style=&quot;background-color: initial;&quot;&gt;&lt;font style=&quot;font-size: 14px;&quot;&gt;{&lt;/font&gt;&lt;/span&gt;&lt;/div&gt;&lt;div style=&quot;&quot;&gt;&lt;font style=&quot;font-size: 14px;&quot;&gt;&lt;span style=&quot;background-color: initial;&quot;&gt;&lt;span style=&quot;white-space: pre;&quot;&gt;&#x9;&lt;/span&gt;id,&amp;nbsp;&amp;nbsp;&lt;/span&gt;&lt;span style=&quot;background-color: initial;&quot;&gt;interface，&lt;/span&gt;&lt;span style=&quot;background-color: initial;&quot;&gt;methodname，&lt;/span&gt;&lt;/font&gt;&lt;/div&gt;&lt;div style=&quot;&quot;&gt;&lt;font style=&quot;font-size: 14px;&quot;&gt;&lt;span style=&quot;white-space: pre;&quot;&gt;&#x9;&lt;/span&gt;parameterTypes，&lt;span style=&quot;background-color: initial;&quot;&gt;parameters&lt;/span&gt;&lt;/font&gt;&lt;/div&gt;&lt;div style=&quot;&quot;&gt;&lt;font style=&quot;font-size: 14px;&quot;&gt;&lt;span style=&quot;background-color: initial;&quot;&gt;&lt;span style=&quot;white-space: pre;&quot;&gt;&#x9;&lt;/span&gt;……&lt;/span&gt;&lt;/font&gt;&lt;/div&gt;&lt;div style=&quot;&quot;&gt;&lt;font style=&quot;font-size: 14px;&quot;&gt;&lt;span style=&quot;background-color: initial;&quot;&gt;}&lt;/span&gt;&lt;/font&gt;&lt;/div&gt;" style="text;html=1;align=left;verticalAlign=middle;whiteSpace=wrap;rounded=0;fontSize=16;" vertex="1" parent="1">
          <mxGeometry x="30" y="60" width="240" height="120" as="geometry" />
        </mxCell>
        <mxCell id="zozvZ9Csr4OsTHH7d_1L-37" style="edgeStyle=orthogonalEdgeStyle;curved=1;rounded=0;orthogonalLoop=1;jettySize=auto;html=1;exitX=0.5;exitY=1;exitDx=0;exitDy=0;entryX=0.5;entryY=0;entryDx=0;entryDy=0;" edge="1" parent="1" source="zozvZ9Csr4OsTHH7d_1L-35" target="zozvZ9Csr4OsTHH7d_1L-17">
          <mxGeometry relative="1" as="geometry" />
        </mxCell>
        <mxCell id="zozvZ9Csr4OsTHH7d_1L-86" style="edgeStyle=orthogonalEdgeStyle;curved=1;rounded=0;orthogonalLoop=1;jettySize=auto;html=1;exitX=1;exitY=0.5;exitDx=0;exitDy=0;entryX=0;entryY=0.5;entryDx=0;entryDy=0;" edge="1" parent="1" source="zozvZ9Csr4OsTHH7d_1L-35" target="zozvZ9Csr4OsTHH7d_1L-85">
          <mxGeometry relative="1" as="geometry" />
        </mxCell>
        <mxCell id="zozvZ9Csr4OsTHH7d_1L-35" value="后台管理程序（dubbo-admin）" style="rounded=0;whiteSpace=wrap;html=1;" vertex="1" parent="1">
          <mxGeometry x="600" y="40" width="120" height="40" as="geometry" />
        </mxCell>
        <mxCell id="zozvZ9Csr4OsTHH7d_1L-38" style="edgeStyle=orthogonalEdgeStyle;curved=1;rounded=0;orthogonalLoop=1;jettySize=auto;html=1;exitX=0.5;exitY=0;exitDx=0;exitDy=0;entryX=1;entryY=0.5;entryDx=0;entryDy=0;" edge="1" parent="1" source="zozvZ9Csr4OsTHH7d_1L-25" target="zozvZ9Csr4OsTHH7d_1L-17">
          <mxGeometry relative="1" as="geometry" />
        </mxCell>
        <mxCell id="zozvZ9Csr4OsTHH7d_1L-39" value="服务注册" style="edgeLabel;html=1;align=center;verticalAlign=middle;resizable=0;points=[];" vertex="1" connectable="0" parent="zozvZ9Csr4OsTHH7d_1L-38">
          <mxGeometry x="0.0863" y="32" relative="1" as="geometry">
            <mxPoint as="offset" />
          </mxGeometry>
        </mxCell>
        <mxCell id="zozvZ9Csr4OsTHH7d_1L-54" style="edgeStyle=orthogonalEdgeStyle;curved=1;rounded=0;orthogonalLoop=1;jettySize=auto;html=1;exitX=1;exitY=0.5;exitDx=0;exitDy=0;entryX=0;entryY=0.5;entryDx=0;entryDy=0;" edge="1" parent="1" source="zozvZ9Csr4OsTHH7d_1L-53" target="zozvZ9Csr4OsTHH7d_1L-11">
          <mxGeometry relative="1" as="geometry">
            <mxPoint x="50" y="388.5" as="targetPoint" />
            <mxPoint x="-30" y="416" as="sourcePoint" />
          </mxGeometry>
        </mxCell>
        <mxCell id="zozvZ9Csr4OsTHH7d_1L-53" value="&lt;div style=&quot;background-color:#ffffff;color:#080808&quot;&gt;&lt;pre style=&quot;font-family:&#39;JetBrains Mono&#39;,monospace;font-size:9.8pt;&quot;&gt;&lt;span style=&quot;color:#0033b3;&quot;&gt;public interface &lt;/span&gt;&lt;span style=&quot;color:#000000;&quot;&gt;A &lt;/span&gt;{&lt;br&gt;    &lt;span style=&quot;color:#0033b3;&quot;&gt;public void &lt;/span&gt;&lt;span style=&quot;color:#00627a;&quot;&gt;doit&lt;/span&gt;();&lt;br&gt;}&lt;br&gt;&lt;br&gt;&lt;span style=&quot;color:#0033b3;&quot;&gt;public class &lt;/span&gt;&lt;span style=&quot;color:#000000;&quot;&gt;DemeCtrl  &lt;/span&gt;{&lt;br&gt;    @Import&lt;br/&gt;    private &lt;span style=&quot;font-size: 9.8pt; white-space: normal; color: rgb(0, 0, 0);&quot;&gt;A &lt;/span&gt;&lt;span style=&quot;font-size: 9.8pt; white-space: normal; color: rgb(135, 16, 148);&quot;&gt;a&lt;/span&gt;&lt;span style=&quot;font-size: 9.8pt; white-space: normal;&quot;&gt;;&lt;/span&gt;&lt;/pre&gt;&lt;pre style=&quot;font-family:&#39;JetBrains Mono&#39;,monospace;font-size:9.8pt;&quot;&gt;    &lt;span style=&quot;color:#0033b3;&quot;&gt;public void &lt;/span&gt;&lt;span style=&quot;color:#00627a;&quot;&gt;aa&lt;/span&gt;() {&lt;br&gt;        &lt;span style=&quot;color:#871094;&quot;&gt;a&lt;/span&gt;.doit();&lt;br&gt;    }&lt;br&gt;}&lt;/pre&gt;&lt;/div&gt;" style="text;whiteSpace=wrap;html=1;" vertex="1" parent="1">
          <mxGeometry x="-180" y="286.75" width="160" height="203.25" as="geometry" />
        </mxCell>
        <mxCell id="zozvZ9Csr4OsTHH7d_1L-55" style="edgeStyle=orthogonalEdgeStyle;curved=1;rounded=0;orthogonalLoop=1;jettySize=auto;html=1;exitX=0;exitY=0.75;exitDx=0;exitDy=0;entryX=1;entryY=0.75;entryDx=0;entryDy=0;" edge="1" parent="1" source="zozvZ9Csr4OsTHH7d_1L-11" target="zozvZ9Csr4OsTHH7d_1L-53">
          <mxGeometry relative="1" as="geometry">
            <mxPoint x="-27.440000000000055" y="429.82500000000005" as="targetPoint" />
          </mxGeometry>
        </mxCell>
        <mxCell id="zozvZ9Csr4OsTHH7d_1L-58" style="edgeStyle=orthogonalEdgeStyle;curved=1;rounded=0;orthogonalLoop=1;jettySize=auto;html=1;exitX=1;exitY=0.25;exitDx=0;exitDy=0;entryX=0;entryY=0.5;entryDx=0;entryDy=0;" edge="1" parent="1" source="zozvZ9Csr4OsTHH7d_1L-9" target="zozvZ9Csr4OsTHH7d_1L-16">
          <mxGeometry relative="1" as="geometry">
            <mxPoint x="610" y="398.5" as="targetPoint" />
          </mxGeometry>
        </mxCell>
        <mxCell id="zozvZ9Csr4OsTHH7d_1L-59" style="edgeStyle=orthogonalEdgeStyle;curved=1;rounded=0;orthogonalLoop=1;jettySize=auto;html=1;exitX=0;exitY=0.75;exitDx=0;exitDy=0;entryX=0.977;entryY=0.657;entryDx=0;entryDy=0;entryPerimeter=0;" edge="1" parent="1" source="zozvZ9Csr4OsTHH7d_1L-16" target="zozvZ9Csr4OsTHH7d_1L-9">
          <mxGeometry relative="1" as="geometry">
            <mxPoint x="610" y="413.5" as="sourcePoint" />
          </mxGeometry>
        </mxCell>
        <mxCell id="zozvZ9Csr4OsTHH7d_1L-61" value="" style="endArrow=classic;startArrow=classic;html=1;rounded=0;curved=1;entryX=0;entryY=0.25;entryDx=0;entryDy=0;" edge="1" parent="1" target="zozvZ9Csr4OsTHH7d_1L-2">
          <mxGeometry width="50" height="50" relative="1" as="geometry">
            <mxPoint x="570" y="288" as="sourcePoint" />
            <mxPoint x="440" y="250" as="targetPoint" />
          </mxGeometry>
        </mxCell>
        <mxCell id="zozvZ9Csr4OsTHH7d_1L-62" value="心跳" style="edgeLabel;html=1;align=center;verticalAlign=middle;resizable=0;points=[];" vertex="1" connectable="0" parent="zozvZ9Csr4OsTHH7d_1L-61">
          <mxGeometry x="0.1003" relative="1" as="geometry">
            <mxPoint y="-1" as="offset" />
          </mxGeometry>
        </mxCell>
        <mxCell id="zozvZ9Csr4OsTHH7d_1L-76" style="edgeStyle=orthogonalEdgeStyle;curved=1;rounded=0;orthogonalLoop=1;jettySize=auto;html=1;exitX=0;exitY=0.75;exitDx=0;exitDy=0;entryX=1;entryY=0.75;entryDx=0;entryDy=0;" edge="1" parent="1" source="zozvZ9Csr4OsTHH7d_1L-31" target="zozvZ9Csr4OsTHH7d_1L-16">
          <mxGeometry relative="1" as="geometry" />
        </mxCell>
        <mxCell id="zozvZ9Csr4OsTHH7d_1L-77" value="&lt;div style=&quot;&quot;&gt;&lt;span style=&quot;background-color: initial;&quot;&gt;&lt;font style=&quot;font-size: 14px;&quot;&gt;Response&lt;/font&gt;&lt;/span&gt;&lt;/div&gt;&lt;div style=&quot;&quot;&gt;&lt;span style=&quot;font-size: 14px; background-color: initial;&quot;&gt;{&lt;/span&gt;&lt;/div&gt;&lt;div style=&quot;&quot;&gt;&lt;font style=&quot;font-size: 14px;&quot;&gt;&lt;span style=&quot;background-color: initial;&quot;&gt;&lt;span style=&quot;white-space: pre;&quot;&gt;&#x9;&lt;/span&gt;id,&amp;nbsp;&amp;nbsp;&lt;/span&gt;&lt;span style=&quot;background-color: initial;&quot;&gt;result，&lt;/span&gt;&lt;span style=&quot;background-color: initial;&quot;&gt;exception&lt;/span&gt;&lt;/font&gt;&lt;span style=&quot;background-color: initial; font-size: 14px;&quot;&gt;……&lt;/span&gt;&lt;/div&gt;&lt;div style=&quot;&quot;&gt;&lt;font style=&quot;font-size: 14px;&quot;&gt;&lt;span style=&quot;background-color: initial;&quot;&gt;}&lt;/span&gt;&lt;/font&gt;&lt;/div&gt;" style="text;html=1;align=left;verticalAlign=middle;whiteSpace=wrap;rounded=0;fontSize=16;" vertex="1" parent="1">
          <mxGeometry x="30" y="545" width="240" height="80" as="geometry" />
        </mxCell>
        <mxCell id="zozvZ9Csr4OsTHH7d_1L-84" style="edgeStyle=orthogonalEdgeStyle;curved=1;rounded=0;orthogonalLoop=1;jettySize=auto;html=1;entryX=0.5;entryY=0;entryDx=0;entryDy=0;" edge="1" parent="1" source="zozvZ9Csr4OsTHH7d_1L-78" target="zozvZ9Csr4OsTHH7d_1L-83">
          <mxGeometry relative="1" as="geometry" />
        </mxCell>
        <mxCell id="zozvZ9Csr4OsTHH7d_1L-78" value="monitor" style="rounded=0;whiteSpace=wrap;html=1;" vertex="1" parent="1">
          <mxGeometry x="590" y="555" width="190" height="60" as="geometry" />
        </mxCell>
        <mxCell id="zozvZ9Csr4OsTHH7d_1L-79" style="edgeStyle=orthogonalEdgeStyle;curved=1;rounded=0;orthogonalLoop=1;jettySize=auto;html=1;exitX=0.5;exitY=1;exitDx=0;exitDy=0;entryX=0;entryY=0.5;entryDx=0;entryDy=0;" edge="1" parent="1" source="zozvZ9Csr4OsTHH7d_1L-60" target="zozvZ9Csr4OsTHH7d_1L-78">
          <mxGeometry relative="1" as="geometry" />
        </mxCell>
        <mxCell id="zozvZ9Csr4OsTHH7d_1L-81" value="上报" style="edgeLabel;html=1;align=center;verticalAlign=middle;resizable=0;points=[];" vertex="1" connectable="0" parent="zozvZ9Csr4OsTHH7d_1L-79">
          <mxGeometry x="0.2628" y="23" relative="1" as="geometry">
            <mxPoint as="offset" />
          </mxGeometry>
        </mxCell>
        <mxCell id="zozvZ9Csr4OsTHH7d_1L-80" style="edgeStyle=orthogonalEdgeStyle;curved=1;rounded=0;orthogonalLoop=1;jettySize=auto;html=1;exitX=0.5;exitY=1;exitDx=0;exitDy=0;entryX=1;entryY=0.5;entryDx=0;entryDy=0;" edge="1" parent="1" source="zozvZ9Csr4OsTHH7d_1L-64" target="zozvZ9Csr4OsTHH7d_1L-78">
          <mxGeometry relative="1" as="geometry" />
        </mxCell>
        <mxCell id="zozvZ9Csr4OsTHH7d_1L-82" value="上报" style="edgeLabel;html=1;align=center;verticalAlign=middle;resizable=0;points=[];" vertex="1" connectable="0" parent="zozvZ9Csr4OsTHH7d_1L-80">
          <mxGeometry x="0.1691" y="-23" relative="1" as="geometry">
            <mxPoint as="offset" />
          </mxGeometry>
        </mxCell>
        <mxCell id="zozvZ9Csr4OsTHH7d_1L-83" value="UI" style="ellipse;whiteSpace=wrap;html=1;aspect=fixed;" vertex="1" parent="1">
          <mxGeometry x="665" y="650" width="40" height="40" as="geometry" />
        </mxCell>
        <mxCell id="zozvZ9Csr4OsTHH7d_1L-85" value="UI" style="ellipse;whiteSpace=wrap;html=1;aspect=fixed;" vertex="1" parent="1">
          <mxGeometry x="787" y="40" width="40" height="40" as="geometry" />
        </mxCell>
      </root>
    </mxGraphModel>
  </diagram>
</mxfile>
